HIERARCHY
ROOT Hips
{
  OFFSET 0 89.5177 0.535
  CHANNELS 6 Xposition Yposition Zposition Zrotation Xrotation Yrotation
  JOINT Spine
  {
    OFFSET 12.0259 -0.162855 1.69034e-005
    CHANNELS 3 Zrotation Xrotation Yrotation
    JOINT Spine1
    {
      OFFSET 15.3169 -0.0121922 0
      CHANNELS 3 Zrotation Xrotation Yrotation
      JOINT Spine2
      {
        OFFSET 15.3176 -0.0121908 0
        CHANNELS 3 Zrotation Xrotation Yrotation
        JOINT Neck
        {
          OFFSET 19.9142 1.56338 0
          CHANNELS 3 Zrotation Xrotation Yrotation
          JOINT Head
          {
            OFFSET 6.92651 0 0
            CHANNELS 3 Zrotation Xrotation Yrotation
            End Site
            {
              OFFSET 20.7666 0 0
            }
          }
          JOINT LeftShoulder
          {
            OFFSET -6.20654 0.708824 7.28219
            CHANNELS 3 Zrotation Xrotation Yrotation
            JOINT LeftArm
            {
              OFFSET 14.108 0 -1.52588e-005
              CHANNELS 3 Zrotation Xrotation Yrotation
              JOINT LeftForeArm
              {
                OFFSET 28.5802 0 0
                CHANNELS 3 Zrotation Xrotation Yrotation
                JOINT LeftHand
                {
                  OFFSET 27.092 0 0
                  CHANNELS 3 Zrotation Xrotation Yrotation
                  End Site
                  {
                    OFFSET 9.55928 -0.186424 0.145352
                  }
                }
              }
            }
          }
          JOINT RightShoulder
          {
            OFFSET -6.20654 0.708866 -7.28218
            CHANNELS 3 Zrotation Xrotation Yrotation
            JOINT RightArm
            {
              OFFSET 14.108 0 1.52588e-005
              CHANNELS 3 Zrotation Xrotation Yrotation
              JOINT RightForeArm
              {
                OFFSET 28.5802 0 0
                CHANNELS 3 Zrotation Xrotation Yrotation
                JOINT RightHand
                {
                  OFFSET 27.092 0 0
                  CHANNELS 3 Zrotation Xrotation Yrotation
                  End Site
                  {
                    OFFSET 9.55929 -0.186417 -0.145354
                  }
                }
              }
            }
          }
        }
      }
    }
  }
  JOINT LeftUpLeg
  {
    OFFSET 0.005 -0.535 8.837
    CHANNELS 3 Zrotation Xrotation Yrotation
    JOINT LeftLeg
    {
      OFFSET 39.9035 0 0
      CHANNELS 3 Zrotation Xrotation Yrotation
      JOINT LeftFoot
      {
        OFFSET 39.6689 0 0
        CHANNELS 3 Zrotation Xrotation Yrotation
        JOINT LeftToe
        {
          OFFSET 10.1624 13.6296 0
          CHANNELS 3 Zrotation Xrotation Yrotation
          End Site
          {
            OFFSET 8.38147 0 0
          }
        }
      }
    }
  }
  JOINT RightUpLeg
  {
    OFFSET 0.005 -0.535 -8.837
    CHANNELS 3 Zrotation Xrotation Yrotation
    JOINT RightLeg
    {
      OFFSET 39.9035 0 0
      CHANNELS 3 Zrotation Xrotation Yrotation
      JOINT RightFoot
      {
        OFFSET 39.6689 0 0
        CHANNELS 3 Zrotation Xrotation Yrotation
        JOINT RightToe
        {
          OFFSET 10.1624 13.6296 0
          CHANNELS 3 Zrotation Xrotation Yrotation
          End Site
          {
            OFFSET 8.38147 0 0
          }
        }
      }
    }
  }
}
MOTION
Frames:	19
Frame Time:	0.0333333
225.042 85.7579 -266.587 -98.1606 32.6717 -177.291 1.19129 -2.40991 1.22285 2.43704 -4.79281 2.49907 2.43704 -4.79281 2.49906 -8.30748e-012 -9.0191e-006 -5.27751e-005 18.8435 -29.3492 17.343 -174.313 -19.0628 -73.0419 -35.3992 0.400381 60.1401 -31.6135 0 -0 -29.0544 -61.0397 -33.2722 -174.925 14.6235 70.6186 -28.1466 -1.04321 -53.4092 -21.7391 3.18055e-015 -3.18055e-015 -67.0869 69.6759 70.3464 -24.875 9.18775 -175.021 -66.0127 -3.18055e-015 -3.18055e-015 9.28826 9.85857 -6.84219 90 -7.95139e-016 -0 -18.7962 -11.1893 -179.062 -32.6061 6.36111e-015 -3.18056e-015 20.5118 -2.09567 -1.54344 90 6.06643e-021 3.18055e-015 
228.054 85.8697 -264.901 -98.4159 33.6742 -176.216 1.20518 -2.1587 0.936922 2.44814 -4.29643 1.92129 2.44814 -4.29643 1.92128 -8.30907e-012 -9.0191e-006 -5.27751e-005 18.179 -28.8699 16.522 -174.154 -19.1187 -72.6409 -33.0232 1.22549 59.6602 -31.2882 0 -6.36111e-015 -29.0317 -61.0901 -33.252 -174.993 14.7411 71.0005 -31.4552 -1.37254 -53.3908 -25.3405 -6.36111e-015 -3.18055e-015 -68.6307 70.0641 71.9831 -28.6121 10.1886 -175.602 -62.2511 -3.18055e-015 -3.18055e-015 14.0629 10.316 -4.55363 90 2.38542e-015 9.54166e-015 -15.9585 -11.0365 179.989 -31.2021 0 1.59028e-015 22.1887 -3.13827 -0.816667 90 0 6.36111e-015 
231.087 85.6883 -263.211 -98.8921 34.7722 -175.085 1.21361 -1.9404 0.643226 2.45105 -3.86612 1.32875 2.45105 -3.86612 1.32874 -8.31066e-012 -9.0191e-006 -5.27751e-005 17.3996 -28.2387 15.7272 -173.882 -19.4073 -72.1207 -30.9439 1.89396 58.928 -30.7605 6.36111e-015 -0 -28.913 -61.0588 -33.1229 -175.048 14.8734 71.3482 -34.954 -1.40411 -53.1154 -28.6005 0 -3.18055e-015 -70.1106 70.2432 73.5572 -32.1742 11.1711 -175.505 -56.3188 -6.36111e-015 -1.59028e-015 15.5006 9.91513 -2.80692 90 1.19271e-015 -1.27222e-014 -13.6699 -10.6683 179.003 -30.5237 -1.59028e-014 -3.18056e-015 24.2246 -3.99341 -0.00802488 90 -1.21329e-020 -0 
234.16 85.3192 -261.497 -99.7079 36.1354 -174.034 1.19905 -1.73353 0.390645 2.41156 -3.45797 0.81823 2.41156 -3.45797 0.81822 -8.30589e-012 -9.0191e-006 -5.27751e-005 16.5388 -27.4912 14.9411 -173.631 -19.5908 -71.5867 -28.4713 2.38406 58.249 -30.1095 6.36111e-015 3.97569e-015 -29.1293 -60.8731 -33.3385 -175.154 14.825 71.6689 -38.0649 -1.02431 -52.6695 -31.3179 3.18055e-015 3.18055e-015 -71.0282 70.4623 74.5244 -35.3832 11.572 -174.488 -48.3071 0 -1.59028e-015 13.961 9.08305 -3.69872 90 1.04362e-015 -3.18055e-015 -11.4709 -9.75647 178.332 -29.7474 -3.18056e-015 -4.77083e-015 26.2536 -4.24871 0.849342 90 0 -0 
237.368 84.8221 -259.747 -100.781 37.145 -173.169 1.15999 -1.6141 0.203945 2.32711 -3.22325 0.440971 2.32711 -3.22325 0.440962 -8.30748e-012 -9.0191e-006 -5.27751e-005 15.6369 -26.7958 14.1514 -173.413 -19.72 -71.1077 -26.0298 2.52509 57.676 -28.8842 -3.18055e-015 5.56597e-015 -29.3197 -60.4552 -33.5066 -175.282 14.6885 71.9698 -40.4476 -0.348759 -52.1993 -33.636 0 3.18055e-015 -71.8755 70.5696 75.4222 -37.8178 10.5891 -172.93 -38.2237 0 1.59028e-015 9.29554 8.6181 -8.79103 90 7.95139e-016 9.54166e-015 -9.03599 -9.08107 177.904 -28.347 -6.36111e-015 -3.18056e-015 28.0694 -4.40837 1.76256 90 1.81993e-020 3.18055e-015 
240.818 84.2 -257.887 -101.915 37.8911 -172.399 1.08434 -1.49973 0.0217877 2.17037 -2.9983 0.0721676 2.17037 -2.9983 0.0721583 -8.30589e-012 -9.0191e-006 -5.27751e-005 15.013 -26.2064 13.6543 -173.388 -19.6934 -71.0164 -23.6146 2.19023 57.5382 -26.9172 -3.18055e-015 1.19271e-015 -29.2842 -59.968 -33.427 -175.375 14.6118 72.2214 -41.5302 0.414119 -51.9968 -35.7153 4.77083e-015 -0 -72.611 70.6274 76.2035 -41.4676 8.91216 -172.076 -32.2655 -3.18055e-015 -1.98785e-015 7.42002 8.75674 -4.49957 90 7.95139e-016 -6.36111e-015 -5.99773 -8.56121 177.56 -26.0282 9.54167e-015 1.11319e-014 29.6093 -4.26186 2.73472 90 0 3.18055e-015 
244.705 83.5065 -255.908 -102.111 39.0984 -172.024 1.12087 -1.29113 -0.224249 2.23754 -2.58591 -0.42319 2.23754 -2.58591 -0.4232 -8.30828e-012 -9.0191e-006 -5.27751e-005 14.6942 -25.8173 13.719 -173.355 -19.7469 -70.9744 -21.6562 1.82939 57.451 -24.7027 6.36111e-015 4.07509e-015 -28.5179 -59.1577 -32.5386 -175.449 14.5685 72.4421 -41.4892 0.983981 -52.1346 -37.4468 -7.95139e-015 3.18055e-015 -73.4175 70.6747 77.0611 -43.4618 8.42402 -170.66 -27.5136 -6.36111e-015 2.29224e-015 6.69344 8.45113 -5.55093 90 -7.95139e-016 9.54166e-015 -1.14199 -8.26415 176.894 -21.9832 -1.59028e-014 -6.36111e-015 30.4883 -4.34162 4.00246 90 1.81993e-020 -0 
249.018 82.9421 -253.919 -101.599 40.8312 -171.717 1.23324 -1.03828 -0.551327 2.45706 -2.08767 -1.08029 2.45706 -2.08767 -1.08029 -8.30112e-012 -9.0191e-006 -5.27751e-005 14.55 -25.5019 13.9778 -173.217 -19.8507 -70.6969 -19.9314 1.71481 57.1261 -22.995 3.18055e-015 3.77691e-015 -27.9941 -58.5343 -31.9231 -175.554 14.4334 72.675 -41.0229 1.21672 -52.4573 -38.4519 3.18055e-015 -0 -73.8921 70.8275 77.5546 -44.4606 10.1828 -169.45 -26.3078 6.36111e-015 7.95139e-016 8.36259 7.68792 -6.23722 90 -3.18055e-015 -6.36111e-015 6.25468 -7.77829 175.744 -14.0215 6.36111e-015 6.36111e-015 29.1589 -4.07904 5.48654 90 -2.48481e-017 -0 
253.589 82.6264 -251.996 -101.417 42.0948 -171.197 1.21285 -0.929335 -0.845154 2.41235 -1.87578 -1.67062 2.41235 -1.87578 -1.67063 -8.30589e-012 -9.0191e-006 -5.27751e-005 14.7151 -25.269 14.0397 -173.049 -19.899 -70.2928 -18.2859 2.00902 56.7958 -21.8056 0 1.19271e-015 -28.0093 -58.1688 -31.9026 -175.572 14.4089 72.7143 -40.869 0.899146 -52.6607 -38.3694 -1.59028e-015 -6.36111e-015 -74.0162 70.7077 77.6975 -44.8962 12.6456 -169.2 -27.9961 3.18055e-015 -4.37326e-015 5.94113 6.91616 -4.40405 90 0 -3.18055e-015 5.8983 -6.35259 173.377 -20.7336 0 1.59028e-015 29.4156 -3.05899 6.62894 90 3.97569e-016 -0 
258.397 82.4164 -250.125 -101.313 42.0447 -170.763 1.08145 -1.06094 -1.06485 2.14357 -2.14113 -2.10988 2.14357 -2.14113 -2.10989 -8.30589e-012 -9.0191e-006 -5.27751e-005 15.3502 -25.4463 14.0681 -172.985 -19.901 -70.1239 -16.8279 2.31471 56.863 -20.745 6.36111e-015 -1.59028e-015 -28.0692 -57.8594 -31.9343 -175.467 14.6107 72.5537 -40.3595 0.0333224 -52.7965 -37.8225 1.59028e-015 6.36111e-015 -73.3404 70.7911 76.9681 -44.1671 12.8495 -170.471 -31.9388 6.36111e-015 2.48481e-016 2.73172 7.21954 -2.70258 90 3.97569e-016 -0 4.81483 -5.83915 171.374 -28.8062 -9.54167e-015 -6.36111e-015 28.0977 -0.997675 5.85731 90 7.95139e-016 -3.18055e-015 
263.466 82.3443 -248.284 -100.321 41.2094 -170.494 1.06404 -1.25851 -1.36842 2.09849 -2.54139 -2.71406 2.09849 -2.54139 -2.71407 -8.3043e-012 -9.0191e-006 -5.27751e-005 16.3187 -26.6821 14.9752 -173.084 -19.7502 -70.2552 -16.3741 2.58231 57.0308 -19.9159 -6.36111e-015 -3.97569e-016 -27.8465 -57.7024 -31.6824 -175.199 15.0282 72.0512 -38.9849 -1.11825 -52.906 -37.1377 0 -3.18055e-015 -72.7026 70.8581 76.2815 -42.1537 12.644 -172.812 -36.338 3.18055e-015 -7.95139e-016 4.41507 7.08472 -1.71266 90 -3.97569e-016 -3.18055e-015 2.31983 -6.9755 168.431 -39.3824 -9.54167e-015 -3.18056e-015 23.0848 1.14953 6.63478 90 0 1.27222e-014 
268.249 82.5882 -246.545 -99.73 40.7865 -170.036 1.03531 -1.33154 -1.64716 2.03275 -2.69162 -3.27117 2.03275 -2.69162 -3.27118 -8.30669e-012 -9.0191e-006 -5.27751e-005 17.3399 -29.1205 16.4832 -173.157 -19.5982 -70.313 -16.825 2.57114 56.8773 -19.4414 3.18055e-015 -1.59028e-015 -27.5357 -57.5613 -31.3393 -175.027 15.2249 71.6671 -36.6624 -2.01151 -53.5874 -35.8423 1.59028e-015 -0 -72.1485 70.8491 75.6908 -39.4278 12.348 -175.055 -39.6352 0 -2.38542e-015 8.86158 6.20695 -1.29384 90 -9.93923e-017 -6.36111e-015 -3.20977 -6.68242 165.81 -52.2982 -6.36111e-015 -3.18056e-015 11.4833 5.21988 4.96327 90 0 -0 
272.46 83.1339 -244.757 -100.21 40.8021 -169.603 0.930935 -1.37799 -1.76587 1.81976 -2.78338 -3.5105 1.81976 -2.78338 -3.51051 -8.30589e-012 -9.0191e-006 -5.27751e-005 18.1562 -31.8846 17.867 -173.132 -19.5855 -70.2352 -17.6622 2.09335 56.3585 -19.4844 -9.54166e-015 1.98785e-015 -27.4857 -57.5118 -31.2815 -174.997 15.1522 71.4843 -34.4433 -2.29991 -54.827 -33.4 -3.18055e-015 -0 -71.1668 70.8402 74.6438 -36.7699 12.7463 -176.143 -40.8294 0 7.95139e-016 12.9052 6.00542 -0.929042 90 -1.98785e-016 -3.18055e-015 -9.17919 -5.25074 165.652 -59.74 3.18056e-015 -0 -1.06795 5.56777 1.53799 90 0 3.18055e-015 
276.323 84.0541 -242.754 -100.67 40.5783 -170.15 0.87481 -1.50456 -1.65694 1.70663 -3.03315 -3.29228 1.70663 -3.03315 -3.29229 -8.31106e-012 -9.0191e-006 -5.27751e-005 18.8418 -34.4391 18.9789 -173.154 -19.4859 -70.2044 -18.563 1.06921 55.8119 -19.5872 -6.36111e-015 -2.38542e-015 -27.823 -57.6305 -31.6505 -174.943 15.0889 71.2267 -33.0247 -2.71825 -56.0181 -30.3509 -9.54166e-015 6.36111e-015 -69.7841 70.825 73.1697 -33.3781 13.0117 -176.29 -39.8873 -3.18055e-015 -2.38542e-015 16.049 6.52325 -0.774952 90 9.93923e-017 3.18055e-015 -12.6986 -3.7929 168.115 -60.1749 0 3.18056e-015 -0.450799 -3.61166 6.44923 90 0 9.54166e-015 
280.228 85.0261 -240.682 -100.287 39.6079 -171.182 0.933198 -1.76425 -1.52429 1.82041 -3.55201 -3.02164 1.82041 -3.55201 -3.02164 -8.30708e-012 -9.0191e-006 -5.27751e-005 19.6297 -36.5489 19.9713 -173.343 -19.2993 -70.5493 -19.6786 -0.253828 55.7525 -19.7092 -3.18055e-015 -2.8948e-015 -28.3004 -57.568 -32.1489 -174.832 15.1228 70.8808 -31.9346 -3.65167 -56.9108 -27.6635 0 6.36111e-015 -68.3407 70.7244 71.6358 -28.6553 12.4425 -177.042 -37.3775 0 -1.59028e-015 18.2174 7.00213 -0.733721 90 0 -6.36111e-015 -16.7393 -5.25032 170.385 -60.9844 6.36111e-015 -0 4.75409 -5.03565 5.16301 90 3.18055e-015 -6.36111e-015 
284.212 85.9554 -238.571 -99.6062 38.2961 -172.317 1.04002 -2.08679 -1.37182 2.03176 -4.1971 -2.70805 2.03176 -4.1971 -2.70805 -8.31106e-012 -9.0191e-006 -5.27751e-005 20.3713 -38.0455 20.7637 -173.627 -19.1007 -71.155 -21.5472 -0.911599 55.9192 -20.8168 9.54166e-015 3.77691e-015 -28.506 -57.9244 -32.4041 -174.707 15.2075 70.5496 -30.9349 -4.89328 -57.5749 -25.7931 0 3.18055e-015 -68.4755 69.7082 71.8314 -23.092 11.6714 -177.98 -33.5582 3.18055e-015 1.59028e-015 19.5654 7.41924 -0.687621 90 -9.93923e-017 9.54166e-015 -20.7633 -8.41865 171.654 -59.5855 0 -6.36111e-015 10.0176 -2.35561 3.95745 90 -3.18055e-015 -3.18055e-015 
288.147 86.6349 -236.343 -98.7966 36.8728 -174.024 1.2132 -2.42561 -1.08119 2.38357 -4.87271 -2.1134 2.38357 -4.87271 -2.11341 -8.30669e-012 -9.0191e-006 -5.27751e-005 20.7981 -39.0003 21.2565 -173.865 -18.9402 -71.6778 -24.1696 -1.0398 55.7939 -22.9363 3.18055e-015 2.38542e-015 -28.7778 -58.7889 -32.7799 -174.611 15.3056 70.3361 -29.3656 -6.04525 -57.998 -25.1568 0 3.18055e-015 -68.8492 69.1831 72.257 -17.5877 10.2565 -178.171 -29.6415 0 3.18055e-015 20.5281 7.51231 -0.762652 90 -1.98785e-016 -3.18055e-015 -23.323 -11.9837 173.609 -54.5797 -6.36111e-015 -0 14.1754 -0.646303 2.07712 90 1.59028e-015 -3.18055e-015 
291.97 86.8715 -234.125 -98.6152 35.8583 -175.179 1.33375 -2.66918 -0.804625 2.63412 -5.35566 -1.54915 2.63412 -5.35566 -1.54915 -8.31066e-012 -9.0191e-006 -5.27751e-005 20.7787 -39.5549 21.6472 -174.077 -18.9016 -72.2414 -27.1224 -1.23641 55.4584 -25.6031 1.27222e-014 7.95139e-016 -29.8106 -59.8825 -33.9806 -174.514 15.5109 70.2458 -27.5638 -6.73585 -58.28 -25.0101 0 -0 -69.0134 69.2115 72.4326 -12.9326 9.43698 -178.014 -26.4348 0 -3.18055e-015 21.8382 7.65025 -0.913181 90 -2.98177e-016 -6.36111e-015 -25.5949 -15.0815 175.7 -47.0325 3.18056e-015 3.18056e-015 15.4285 0.474914 -0.333165 90 -1.59028e-015 3.18055e-015 
295.773 86.6358 -231.908 -98.5604 35.1494 -175.628 1.45374 -2.85232 -0.675376 2.87908 -5.72022 -1.28022 2.87908 -5.72022 -1.28023 -8.30589e-012 -9.0191e-006 -5.27751e-005 20.5877 -39.8931 22.2552 -174.251 -18.9821 -72.8027 -29.8395 -1.85445 54.7817 -28.4472 -6.36111e-015 -5.56597e-015 -30.6244 -60.9243 -34.9372 -174.399 15.7763 70.1662 -26.2701 -7.40378 -58.524 -25.1201 -6.36111e-015 -1.59028e-015 -69.0009 69.4303 72.4093 -8.58788 9.39577 -178.154 -23.9084 -3.18055e-015 -1.59028e-015 23.6225 8.02806 -1.1717 90 9.93923e-017 3.18055e-015 -27.4073 -17.4982 177.423 -37.5921 9.54167e-015 3.18056e-015 13.2283 1.70343 -2.90933 90 -7.95139e-016 6.36111e-015 
